<?xml version="1.0" standalone="no"?>
<!DOCTYPE svg PUBLIC "-//W3C//DTD SVG 20010904//EN"
 "http://www.w3.org/TR/2001/REC-SVG-20010904/DTD/svg10.dtd">
<svg version="1.0" xmlns="http://www.w3.org/2000/svg"
 width="443.000000pt" height="398.000000pt" viewBox="0 0 443.000000 398.000000"
 preserveAspectRatio="xMidYMid meet">

<g transform="translate(0.000000,398.000000) scale(0.100000,-0.100000)"
fill="#000000" stroke="none">
<path d="M3646 3894 c-36 -31 -90 -88 -120 -128 -74 -99 -186 -274 -186 -291
0 -19 -42 -105 -51 -105 -27 0 -16 126 12 141 26 13 24 28 -12 104 -30 64 -61
96 -74 75 -3 -5 -15 -10 -25 -10 -15 0 -20 -10 -25 -57 -3 -32 -13 -77 -21
-100 -14 -38 -18 -203 -5 -203 3 0 16 11 30 24 15 13 40 31 56 41 19 12 8 -4
-33 -45 -35 -34 -61 -64 -58 -67 3 -3 -1 -18 -9 -34 -19 -36 -19 -45 0 -29 12
10 15 10 15 0 0 -6 14 0 31 14 44 38 61 32 18 -7 -37 -32 -129 -149 -129 -163
0 -4 10 1 22 12 13 11 9 2 -11 -23 -18 -24 -35 -43 -38 -43 -4 0 1 8 10 18 27
30 20 38 -10 11 -23 -21 -25 -22 -19 -4 12 34 19 75 12 75 -4 0 -14 -16 -22
-36 -22 -52 -25 -39 -9 36 8 36 14 82 15 103 0 21 9 75 20 120 21 88 55 355
47 364 -3 3 -15 -15 -28 -39 -34 -68 -91 -141 -99 -128 -9 15 -46 -3 -145 -70
-38 -26 -101 -64 -140 -85 -86 -46 -109 -66 -137 -124 -22 -43 -23 -57 -21
-244 1 -180 0 -197 -15 -195 -14 3 -18 -10 -23 -77 -4 -44 -11 -98 -17 -120
-6 -22 -15 -103 -21 -180 -8 -106 -15 -143 -27 -152 -17 -12 -48 -204 -38
-235 3 -10 -2 -40 -11 -67 -18 -55 -22 -84 -30 -236 -3 -60 -11 -115 -17 -123
-6 -7 -13 -46 -14 -85 -4 -120 -16 -221 -28 -237 -7 -8 -19 -35 -26 -60 -8
-25 -20 -51 -27 -58 -14 -15 -18 -28 -32 -122 -6 -36 -17 -96 -25 -134 -12
-53 -13 -73 -4 -83 8 -10 8 -17 2 -21 -10 -7 -44 -116 -44 -140 0 -7 16 -20
36 -29 27 -14 34 -22 30 -38 -3 -11 -6 -26 -6 -34 0 -10 -6 -8 -20 7 -29 31
-60 27 -104 -13 -43 -39 -56 -38 -56 5 0 21 -4 28 -17 26 -21 -3 -29 -41 -14
-60 7 -9 4 -22 -14 -48 -24 -36 -24 -37 -7 -67 16 -30 54 -42 66 -22 3 4 18 6
32 3 18 -3 31 1 39 11 11 15 13 15 29 -2 15 -16 15 -22 4 -40 -14 -22 -4 -51
20 -59 9 -3 11 7 6 35 -6 36 -4 39 28 53 23 11 34 22 36 40 l2 25 -16 -23 c-9
-12 -20 -22 -25 -22 -11 0 -11 47 0 75 8 19 8 19 15 -2 15 -46 25 -21 28 65
l3 87 60 0 c119 -1 175 -27 175 -79 0 -21 -7 -26 -50 -35 -28 -6 -58 -11 -67
-11 -12 0 -13 -3 -4 -14 9 -10 4 -27 -19 -71 -16 -31 -30 -67 -30 -79 0 -12
-7 -31 -15 -42 -20 -26 -19 -48 5 -69 13 -12 17 -25 14 -45 -4 -18 3 -48 21
-87 23 -49 36 -64 75 -86 l48 -27 1006 0 1006 0 0 1851 0 1851 -22 -6 c-74
-23 -214 -5 -296 38 -17 9 -38 16 -47 16 -9 0 -53 15 -98 32 -67 27 -95 46
-153 100 -39 38 -78 68 -87 68 -8 0 -45 -25 -81 -56z m-1067 -732 c3 -15 5
-127 5 -250 1 -122 4 -222 8 -222 3 0 4 -18 1 -40 -3 -22 -2 -40 3 -40 5 0 7
-25 6 -56 -2 -32 1 -61 7 -67 15 -15 14 -27 -4 -27 -17 0 -21 -35 -5 -45 6 -4
8 -11 5 -16 -4 -5 -2 -9 2 -9 5 0 9 -37 8 -81 -1 -57 3 -86 13 -95 9 -10 10
-14 2 -14 -8 0 -11 -11 -8 -30 3 -17 1 -33 -3 -35 -4 -3 -5 -14 -2 -24 3 -10
0 -28 -6 -40 -9 -16 -9 -21 0 -21 7 0 9 -11 5 -35 -11 -59 -15 -175 -6 -175 5
0 5 -13 0 -29 -4 -16 -6 -32 -3 -35 3 -3 2 -11 -4 -18 -5 -7 -10 -28 -12 -47
-2 -49 -8 -88 -21 -146 -6 -27 -13 -61 -15 -75 -5 -36 -6 -37 -14 -15 -10 24
-5 136 9 225 29 175 28 564 -1 745 -7 45 -9 135 -5 250 4 99 9 251 12 338 5
147 13 193 23 129z m1031 -302 c236 -37 291 -52 365 -97 193 -118 318 -273
341 -421 9 -59 -12 -85 -99 -128 -39 -19 -81 -43 -92 -54 -15 -14 -35 -20 -70
-20 -38 0 -46 -3 -37 -12 26 -26 10 -38 -90 -69 -57 -17 -126 -44 -154 -59
-29 -16 -66 -29 -85 -28 -57 0 -199 -27 -207 -40 -14 -21 -67 -26 -83 -6 -11
14 -11 18 -1 22 10 3 8 8 -5 19 -10 8 -12 11 -4 7 9 -4 12 -3 8 3 -4 6 -23 13
-43 16 -31 5 -42 2 -62 -18 -14 -14 -29 -25 -35 -25 -6 0 -2 -9 8 -20 10 -11
25 -20 33 -20 9 0 32 -8 52 -17 33 -16 40 -26 63 -93 14 -41 46 -135 72 -209
26 -73 43 -137 38 -141 -11 -10 -88 -19 -100 -11 -6 3 -14 17 -18 30 -5 18 -9
20 -16 10 -4 -7 -3 -19 2 -26 6 -7 8 -17 4 -23 -11 -18 -149 -90 -173 -90 -13
0 -30 -6 -37 -14 -23 -22 -85 -30 -103 -12 -16 16 -10 44 10 50 7 3 25 7 41
10 15 4 27 11 27 16 0 13 -96 13 -119 0 -13 -6 -24 -5 -39 6 -33 23 -27 48 14
63 19 7 33 18 31 24 -4 14 -85 18 -93 6 -3 -5 -17 -9 -32 -9 -15 0 -38 -12
-54 -27 -15 -15 -28 -22 -28 -16 0 6 7 16 15 23 8 7 15 17 15 22 0 6 -7 5 -15
-2 -27 -22 -27 -5 -1 54 25 56 34 62 89 58 17 -2 23 9 11 21 -3 3 -23 -1 -45
-8 -36 -13 -39 -13 -54 8 -35 50 -7 95 76 122 55 19 160 77 180 101 9 11 8 19
-5 36 -9 13 -28 38 -41 57 -14 18 -27 50 -30 70 -4 20 -17 61 -30 91 -37 83
-48 143 -42 228 6 89 52 238 99 322 80 143 219 247 333 249 17 1 113 -12 215
-29z m-744 -626 c-8 -98 -13 -114 -33 -114 -8 0 -11 5 -7 11 4 6 8 34 10 61 4
55 21 128 31 128 3 0 3 -39 -1 -86z m-332 -1007 c-6 -40 -15 -103 -18 -141 -8
-102 -16 -93 -16 20 1 67 5 107 15 124 8 14 14 35 15 48 0 12 4 22 9 22 4 0 2
-33 -5 -73z m1830 -29 c-4 -24 -10 -45 -14 -48 -3 -3 -10 -14 -14 -24 -6 -18
-8 -18 -23 -3 -18 17 -18 14 23 90 22 40 35 33 28 -15z m-111 -80 c-10 -21
-12 -21 -18 -5 -10 25 2 54 17 39 8 -8 8 -18 1 -34z m87 -57 c0 -14 -36 -24
-60 -16 -32 10 -23 21 20 23 22 2 40 -2 40 -7z m50 -731 c0 -5 -4 -10 -10 -10
-5 0 -10 5 -10 10 0 6 5 10 10 10 6 0 10 -4 10 -10z m-242 -120 c-11 -44 -28
-45 -28 -1 0 30 7 41 26 41 9 0 9 -10 2 -40z m-1764 -11 c8 -12 12 -28 9 -36
-4 -11 -9 -10 -25 7 -10 11 -23 18 -29 15 -11 -7 -11 -3 -3 19 9 22 30 20 48
-5z m-70 -36 c15 -25 24 -48 22 -50 -3 -4 -56 84 -56 93 0 13 11 -2 34 -43z
m206 3 c0 -22 -6 -36 -16 -40 -22 -8 -22 -8 -32 12 -14 25 3 62 28 62 16 0 20
-6 20 -34z"/>
<path d="M3448 1953 c7 -3 16 -2 19 1 4 3 -2 6 -13 5 -11 0 -14 -3 -6 -6z"/>
<path d="M3381 1514 c0 -11 3 -14 6 -6 3 7 2 16 -1 19 -3 4 -6 -2 -5 -13z"/>
<path d="M3170 1355 c0 -16 16 -20 24 -6 3 5 -1 11 -9 15 -9 3 -15 0 -15 -9z"/>
<path d="M3160 3787 c0 -2 15 -16 33 -33 l32 -29 -29 33 c-28 30 -36 37 -36
29z"/>
<path d="M3102 3545 c-23 -72 -29 -131 -13 -120 18 10 42 104 39 147 l-3 43
-23 -70z"/>
<path d="M2605 3440 c-3 -5 -1 -10 4 -10 6 0 11 5 11 10 0 6 -2 10 -4 10 -3 0
-8 -4 -11 -10z"/>
<path d="M1872 2451 c-24 -17 -52 -41 -63 -55 -11 -14 -40 -38 -65 -52 -50
-30 -55 -46 -19 -62 36 -16 92 14 168 89 44 43 58 64 55 81 -4 33 -27 32 -76
-1z"/>
<path d="M1622 2217 c-34 -34 -72 -84 -72 -93 0 -11 45 -54 56 -54 5 0 24 15
42 34 29 30 32 38 26 75 -9 55 -24 66 -52 38z"/>
<path d="M1472 1998 c-17 -17 -15 -32 7 -52 11 -10 21 -32 23 -49 2 -17 8 -32
15 -34 8 -3 8 12 -3 58 -18 79 -26 93 -42 77z"/>
<path d="M439 1988 c0 -2 -2 -18 -5 -37 l-4 -34 37 7 c21 4 73 10 116 13 73 6
77 7 77 29 0 19 -5 24 -25 24 -14 0 -25 -4 -25 -9 0 -9 -41 -23 -49 -16 -2 3
7 9 20 14 18 7 5 10 -58 10 -46 1 -83 0 -84 -1z"/>
<path d="M236 1834 c-9 -69 -7 -164 4 -139 4 12 15 27 24 34 13 11 13 16 1 34
-12 19 -11 25 5 45 20 24 40 22 40 -5 0 -11 5 -13 18 -8 38 17 57 11 60 -18 4
-34 -18 -44 -51 -22 -22 14 -25 14 -30 0 -8 -18 1 -45 15 -45 5 0 18 4 28 10
15 8 22 5 38 -18 l20 -27 24 23 c18 16 23 30 20 52 -2 18 0 30 7 30 13 0 15
-65 7 -245 -1 -20 4 -30 13 -30 17 0 40 107 33 154 -2 16 1 32 7 35 6 4 11 24
11 45 0 22 6 44 15 51 13 11 15 5 17 -41 1 -30 0 -96 -1 -146 -2 -61 0 -93 7
-93 17 0 21 13 26 91 3 41 9 88 15 104 19 61 22 131 6 145 -13 11 -19 10 -35
-5 -18 -16 -23 -17 -46 -5 -20 11 -29 12 -45 2 -11 -7 -25 -9 -32 -5 -7 4 -32
9 -57 10 -95 6 -109 8 -121 21 -24 23 -36 12 -43 -34z"/>
<path d="M810 1825 c0 -14 5 -25 10 -25 6 0 10 11 10 25 0 14 -4 25 -10 25 -5
0 -10 -11 -10 -25z"/>
<path d="M740 1819 c0 -11 5 -17 10 -14 6 3 10 13 10 21 0 8 -4 14 -10 14 -5
0 -10 -9 -10 -21z"/>
<path d="M1082 1738 c2 -13 8 -23 13 -23 6 0 11 10 13 23 2 15 -2 22 -13 22
-11 0 -15 -7 -13 -22z"/>
<path d="M1430 1743 c0 -12 5 -25 10 -28 13 -8 13 15 0 35 -8 12 -10 11 -10
-7z"/>
<path d="M1087 1684 c-10 -11 -8 -44 2 -44 6 0 13 4 16 10 8 12 -9 43 -18 34z"/>
<path d="M222 1621 c-14 -45 -16 -101 -4 -101 5 0 17 9 27 20 15 16 15 22 5
35 -8 9 -10 29 -7 50 8 47 -7 45 -21 -4z"/>
<path d="M306 1644 c-8 -21 -1 -28 19 -20 9 3 15 11 13 18 -7 19 -25 20 -32 2z"/>
<path d="M389 1644 c-9 -11 -10 -20 -3 -32 17 -26 33 -25 40 2 10 42 -12 60
-37 30z"/>
<path d="M1080 1565 c0 -8 5 -15 10 -15 6 0 10 7 10 15 0 8 -4 15 -10 15 -5 0
-10 -7 -10 -15z"/>
<path d="M290 1552 c0 -27 10 -33 32 -21 15 8 17 13 7 25 -16 20 -39 17 -39
-4z"/>
<path d="M375 1549 c-9 -27 19 -59 36 -42 15 15 7 57 -13 61 -10 2 -19 -6 -23
-19z"/>
<path d="M294 1447 c-9 -24 6 -44 18 -22 7 11 6 21 -1 28 -7 7 -12 6 -17 -6z"/>
<path d="M369 1458 c-1 -2 -3 -35 -5 -75 -2 -54 1 -73 11 -77 19 -7 26 6 25
46 0 18 3 50 6 71 6 33 4 37 -15 37 -12 0 -22 -1 -22 -2z"/>
<path d="M215 1439 c-10 -15 3 -25 16 -12 7 7 7 13 1 17 -6 3 -14 1 -17 -5z"/>
<path d="M460 1430 c0 -24 15 -27 24 -4 9 22 8 24 -9 24 -8 0 -15 -9 -15 -20z"/>
<path d="M0 1401 c0 -36 5 -39 19 -12 8 14 7 22 -4 31 -13 11 -15 8 -15 -19z"/>
<path d="M296 1371 c-4 -7 -5 -15 -2 -18 9 -9 19 4 14 18 -4 11 -6 11 -12 0z"/>
<path d="M455 1340 c-8 -13 4 -32 16 -25 12 8 12 35 0 35 -6 0 -13 -4 -16 -10z"/>
<path d="M361 1256 c-13 -16 -7 -56 9 -56 19 0 30 37 17 55 -12 15 -14 15 -26
1z"/>
<path d="M1950 1260 c-339 -54 -630 -115 -630 -132 0 -11 17 -10 42 3 11 6 61
15 111 19 116 11 123 7 108 -75 -6 -32 -11 -73 -11 -91 0 -27 -7 -36 -37 -55
l-37 -23 -240 19 c-133 10 -268 17 -301 16 -33 -1 -77 1 -99 5 -36 6 -38 8
-32 35 7 37 -15 39 -75 4 -49 -27 -112 -32 -189 -14 -59 14 -213 14 -239 -1
-19 -10 -21 -20 -21 -103 -1 -51 -5 -126 -11 -167 -9 -71 -28 -236 -48 -417
-12 -110 -19 -120 -55 -87 -27 26 -28 27 -21 110 6 71 5 84 -8 84 -10 0 -19
-19 -28 -56 -8 -30 -18 -56 -24 -57 -5 -1 -11 24 -13 56 -4 71 -22 72 -37 2
-11 -54 -30 -68 -44 -33 -7 16 -10 -9 -10 -88 -1 -97 1 -113 16 -118 44 -17
323 -35 573 -37 151 -2 291 -6 310 -10 38 -9 122 -1 115 11 -8 13 20 60 33 55
7 -3 12 5 12 20 0 30 12 38 34 22 18 -13 24 -57 12 -94 -10 -31 15 -41 93 -36
36 3 86 0 111 -6 25 -6 137 -14 249 -17 183 -4 203 -3 191 11 -7 8 -23 15 -37
15 -24 0 -24 1 -21 87 3 86 3 88 28 88 14 0 24 5 23 12 -2 7 7 18 18 24 15 8
18 13 10 18 -8 6 -9 15 -2 34 12 30 46 39 37 10 -10 -35 -9 -164 2 -175 26
-26 39 0 46 91 5 65 11 91 21 91 23 0 27 31 5 37 -20 5 -20 7 6 41 23 29 25
38 15 54 -7 11 -9 28 -6 38 7 23 -33 120 -50 120 -28 0 -33 -25 -26 -115 8
-98 5 -113 -36 -144 l-26 -21 -19 20 c-24 25 -38 18 -38 -20 0 -31 -18 -55
-50 -65 -11 -3 -20 -11 -20 -16 0 -5 -7 -9 -15 -9 -11 0 -15 12 -15 49 0 75
-10 111 -30 111 -10 0 -23 -7 -30 -15 -29 -35 -46 -1 -24 50 13 32 18 36 47
33 27 -3 32 -7 30 -28 -2 -18 4 -28 22 -36 27 -13 47 1 60 44 8 26 22 20 36
-15 10 -26 31 -22 28 5 -4 44 2 60 25 66 25 6 36 37 36 100 0 47 12 57 72 60
73 5 79 9 72 55 -4 28 -2 40 12 51 9 8 19 14 21 13 10 -8 23 -1 23 12 0 8 -7
15 -15 15 -8 0 -15 7 -15 16 0 8 7 22 15 30 8 9 15 20 15 25 0 16 -42 10 -56
-8 -13 -17 -13 -17 -13 2 0 11 6 31 13 44 13 23 11 27 -15 52 -22 20 -29 36
-29 63 0 46 -15 46 -32 0 -10 -28 -17 -34 -32 -30 -11 3 -28 -1 -37 -10 -14
-13 -18 -13 -29 2 -12 14 -15 13 -30 -7 -26 -34 -40 -16 -34 44 8 76 31 151
51 169 18 16 53 25 128 33 22 2 54 6 70 8 17 3 36 5 43 6 6 0 12 8 12 16 0 8
-3 14 -7 14 -5 -1 -28 -5 -53 -9z m-2 -454 c6 -27 -14 -42 -32 -27 -12 10 -13
18 -5 33 12 22 32 19 37 -6z m-203 -255 c0 -17 -10 -30 -33 -43 l-33 -18 7 37
c9 50 12 55 37 51 16 -2 22 -10 22 -27z m-357 -93 c-3 -7 -13 -15 -24 -17 -16
-3 -17 -1 -5 13 16 19 34 21 29 4z m-161 -82 c25 -23 25 -24 5 -35 -15 -8 -23
-7 -32 4 -7 8 -19 15 -26 15 -16 0 -16 2 -8 24 9 23 31 20 61 -8z m179 10 c17
-13 21 -12 37 1 25 23 28 13 15 -51 -14 -63 -9 -71 43 -82 23 -5 26 -11 28
-55 2 -49 1 -50 -25 -47 -15 2 -29 -3 -31 -9 -3 -9 6 -13 25 -13 17 0 37 -7
46 -15 18 -18 38 -19 54 -3 9 9 12 7 14 -10 0 -12 1 -27 2 -34 1 -8 -22 -12
-67 -12 -68 -1 -91 8 -85 35 2 8 -7 15 -18 17 -27 4 -38 52 -28 119 l7 46 -31
-19 c-17 -10 -34 -15 -37 -12 -4 3 -1 24 6 46 10 35 16 41 43 44 17 2 30 8 28
13 -2 6 -16 9 -32 7 -30 -3 -45 10 -36 33 7 19 17 19 42 1z m134 -81 c0 -16
-6 -25 -15 -25 -15 0 -21 31 -8 43 13 14 23 6 23 -18z m-235 -107 c-4 -35 -11
-68 -16 -74 -12 -15 -1 -24 28 -24 14 0 23 -6 23 -15 0 -17 -18 -19 -40 -5
-16 10 -44 -6 -35 -20 12 -19 -16 -19 -35 0 -11 11 -27 20 -35 20 -9 0 -15 9
-15 24 0 13 -3 37 -6 54 -5 26 -1 36 27 61 31 28 50 36 92 40 17 1 18 -5 12
-61z m-385 -39 c16 -38 5 -60 -36 -71 -43 -12 -84 -1 -84 23 0 11 7 22 16 26
9 3 28 17 42 29 33 32 47 30 62 -7z m-282 4 c-5 -25 -28 -28 -28 -4 0 12 6 21
16 21 9 0 14 -7 12 -17z m-98 -13 c0 -5 -7 -10 -15 -10 -8 0 -15 5 -15 10 0 6
7 10 15 10 8 0 15 -4 15 -10z"/>
<path d="M446 1251 c-8 -13 4 -42 15 -35 12 7 12 44 0 44 -6 0 -12 -4 -15 -9z"/>
<path d="M354 1156 c-4 -10 -2 -22 4 -28 8 -8 13 -7 18 6 4 10 2 22 -4 28 -8
8 -13 7 -18 -6z"/>
<path d="M1255 1135 c-5 -2 -46 -11 -90 -21 -44 -9 -89 -23 -101 -30 -11 -7
-41 -15 -67 -19 -25 -4 -54 -13 -63 -19 -15 -12 -15 -14 1 -29 19 -19 47 -22
76 -6 38 20 120 36 162 32 39 -4 43 -2 59 26 9 17 30 36 45 42 22 8 24 12 13
19 -16 10 -19 11 -35 5z"/>
<path d="M430 1040 c0 -13 5 -20 13 -17 6 2 12 10 12 17 0 7 -6 15 -12 18 -8
2 -13 -5 -13 -18z"/>
<path d="M865 1030 c-3 -5 3 -10 14 -10 12 0 21 5 21 10 0 6 -6 10 -14 10 -8
0 -18 -4 -21 -10z"/>
<path d="M196 863 c-15 -4 -17 -12 -13 -45 7 -50 18 -62 51 -54 22 5 26 12 26
40 0 19 -7 42 -16 50 -16 17 -17 17 -48 9z"/>
<path d="M115 753 c-16 -2 -49 -6 -73 -9 l-42 -5 0 -122 c0 -88 3 -118 11
-110 9 9 25 103 29 166 0 4 9 7 20 7 24 0 26 -32 5 -70 -25 -44 -14 -130 17
-130 7 0 22 12 35 28 l23 27 6 -22 c3 -13 10 -23 15 -23 12 0 18 31 28 145 5
62 4 105 -2 113 -9 12 -14 12 -72 5z"/>
<path d="M2020 710 c0 -5 5 -10 11 -10 5 0 7 5 4 10 -3 6 -8 10 -11 10 -2 0
-4 -4 -4 -10z"/>
<path d="M1956 355 c-11 -29 -6 -55 9 -55 23 0 29 26 12 50 -13 18 -15 19 -21
5z"/>
<path d="M1981 274 c0 -11 3 -14 6 -6 3 7 2 16 -1 19 -3 4 -6 -2 -5 -13z"/>
<path d="M2106 274 c-16 -42 0 -154 22 -154 11 0 22 106 15 143 -6 30 -27 36
-37 11z"/>
<path d="M1926 189 c-3 -17 -6 -67 -6 -110 0 -72 2 -79 20 -79 19 0 20 7 20
94 0 94 -5 126 -20 126 -4 0 -10 -14 -14 -31z"/>
<path d="M2270 95 c0 -15 4 -24 10 -20 6 3 10 12 10 20 0 8 -4 17 -10 20 -6 4
-10 -5 -10 -20z"/>
<path d="M1790 10 c-12 -8 -11 -10 8 -10 12 0 22 5 22 10 0 13 -11 13 -30 0z"/>
<path d="M2275 10 c4 -6 11 -8 16 -5 14 9 11 15 -7 15 -8 0 -12 -5 -9 -10z"/>
</g>
</svg>
