<svg width="60" height="60" viewBox="0 0 60 60" fill="none" xmlns="http://www.w3.org/2000/svg">
<rect x="10" y="14" width="27" height="6" fill="#3498DB"/>
<rect x="3.79167" y="9.96874" width="43.0625" height="30.9167" rx="3.3125" stroke="#3498DB" stroke-width="4.41667"/>
<path d="M37.4687 51.9271C37.4687 52.7555 36.7137 53.9915 34.3657 55.1185C32.1372 56.1882 28.942 56.8958 25.3229 56.8958C21.7038 56.8958 18.5087 56.1882 16.2801 55.1185C13.9322 53.9915 13.1771 52.7555 13.1771 51.9271C13.1771 51.0986 13.9322 49.8626 16.2801 48.7356C18.5087 47.6659 21.7038 46.9583 25.3229 46.9583C28.942 46.9583 32.1372 47.6659 34.3657 48.7356C36.7137 49.8626 37.4687 51.0986 37.4687 51.9271Z" fill="#3498DB" stroke="#3498DB" stroke-width="3.3125"/>
<rect x="19.25" y="44.1979" width="11.0417" height="2.20833" stroke="#3498DB" stroke-width="2.20833"/>
<path d="M12.2023 29.0104L10.5245 22.6873H11.3828L12.3447 26.8323C12.4482 27.2665 12.5373 27.6978 12.6121 28.1262C12.7731 27.4505 12.868 27.0609 12.8967 26.9573L14.1001 22.6873H15.1094L16.0151 25.8877C16.2423 26.6813 16.4062 27.4275 16.5068 28.1262C16.5874 27.7265 16.6923 27.2679 16.8217 26.7503L17.8137 22.6873H18.6548L16.9209 29.0104H16.1143L14.7816 24.1926C14.6694 23.7901 14.6033 23.5428 14.5832 23.4508C14.517 23.7412 14.4552 23.9885 14.3977 24.1926L13.0563 29.0104H12.2023ZM19.457 29.0104V22.6873H24.029V23.4335H20.2938V25.3701H23.7918V26.112H20.2938V28.2642H24.1756V29.0104H19.457ZM25.297 29.0104V22.6873H27.6693C28.1523 22.6873 28.5391 22.752 28.8295 22.8814C29.1228 23.0079 29.3514 23.2049 29.5153 23.4723C29.6821 23.7369 29.7655 24.0143 29.7655 24.3048C29.7655 24.575 29.6921 24.8295 29.5455 25.0682C29.3988 25.3068 29.1774 25.4995 28.8813 25.6461C29.2637 25.7583 29.557 25.9495 29.7612 26.2198C29.9682 26.4901 30.0717 26.8093 30.0717 27.1773C30.0717 27.4735 30.0084 27.7495 29.8819 28.0054C29.7583 28.2585 29.6044 28.454 29.4204 28.592C29.2364 28.7301 29.0049 28.835 28.726 28.9069C28.45 28.9759 28.1107 29.0104 27.7081 29.0104H25.297ZM26.1338 25.3442H27.5011C27.872 25.3442 28.138 25.3198 28.299 25.2709C28.5118 25.2076 28.6714 25.1027 28.7778 24.956C28.887 24.8094 28.9417 24.6254 28.9417 24.404C28.9417 24.1941 28.8913 24.01 28.7907 23.8519C28.6901 23.6909 28.5463 23.5816 28.3594 23.5241C28.1725 23.4637 27.8519 23.4335 27.3975 23.4335H26.1338V25.3442ZM26.1338 28.2642H27.7081C27.9784 28.2642 28.1682 28.2542 28.2774 28.234C28.4701 28.1995 28.6311 28.142 28.7605 28.0615C28.8899 27.981 28.9963 27.8645 29.0797 27.7121C29.1631 27.5569 29.2048 27.3786 29.2048 27.1773C29.2048 26.9415 29.1444 26.7374 29.0236 26.5648C28.9028 26.3894 28.7346 26.2672 28.519 26.1982C28.3062 26.1263 27.9985 26.0904 27.596 26.0904H26.1338V28.2642Z" fill="#3498DB"/>
<line x1="10" y1="33.4479" x2="38.7083" y2="33.4479" stroke="#3498DB" stroke-width="1.10417"/>
<path d="M10 35.9167L42.4375 35.9167" stroke="#3498DB" stroke-width="1.10417"/>
<path d="M55 13.5C55 18.0618 50.6655 22 45 22C39.3345 22 35 18.0618 35 13.5C35 8.93816 39.3345 5 45 5C50.6655 5 55 8.93816 55 13.5Z" fill="white" stroke="#3498DB" stroke-width="2"/>
<path d="M43.5 12V15" stroke="black"/>
<path d="M47.5 13.5C47.5 15.5323 47.2247 17.3514 46.7934 18.6452C46.5769 19.2947 46.3302 19.7842 46.0804 20.1011C45.8262 20.4237 45.6263 20.5 45.5 20.5C45.3737 20.5 45.1738 20.4237 44.9196 20.1011C44.6698 19.7842 44.4231 19.2947 44.2066 18.6452C43.7753 17.3514 43.5 15.5323 43.5 13.5C43.5 11.4677 43.7753 9.64858 44.2066 8.35481C44.4231 7.70531 44.6698 7.21577 44.9196 6.89887C45.1738 6.57634 45.3737 6.5 45.5 6.5C45.6263 6.5 45.8262 6.57634 46.0804 6.89887C46.3302 7.21577 46.5769 7.70531 46.7934 8.35481C47.2247 9.64858 47.5 11.4677 47.5 13.5Z" fill="white" stroke="#3498DB"/>
<path d="M45 11.5C47.4534 11.5 49.6562 11.7768 51.2301 12.214C52.0206 12.4336 52.6241 12.6859 53.0183 12.9448C53.4328 13.2171 53.5 13.4152 53.5 13.5C53.5 13.5848 53.4328 13.7829 53.0183 14.0552C52.6241 14.3141 52.0206 14.5664 51.2301 14.786C49.6562 15.2232 47.4534 15.5 45 15.5C42.5466 15.5 40.3438 15.2232 38.7699 14.786C37.9794 14.5664 37.3759 14.3141 36.9817 14.0552C36.5672 13.7829 36.5 13.5848 36.5 13.5C36.5 13.4152 36.5672 13.2171 36.9817 12.9448C37.3759 12.6859 37.9794 12.4336 38.7699 12.214C40.3438 11.7768 42.5466 11.5 45 11.5Z" fill="white" stroke="#3498DB"/>
<line x1="43.5" y1="12" x2="43.5" y2="15" stroke="#3498DB"/>
<line x1="47.5" y1="12" x2="47.5" y2="15" stroke="#3498DB"/>
<path d="M39 7C41.7383 12.2435 41.594 15.0811 39 20" stroke="#3498DB"/>
<path d="M52 20C49.2617 14.7565 49.406 11.9189 52 7" stroke="#3498DB"/>
<path d="M39 7C44.0223 9.57765 46.8652 9.75422 52 7" stroke="#3498DB"/>
<path d="M52 20C46.9777 17.4223 44.1348 17.2458 39 20" stroke="#3498DB"/>
</svg>
