<svg width="60" height="60" viewBox="0 0 60 60" fill="none" xmlns="http://www.w3.org/2000/svg">
<rect x="3.79167" y="9.96874" width="43.0625" height="30.9167" rx="3.3125" stroke="#3498DB" stroke-width="4.41667"/>
<path d="M37.4687 51.9271C37.4687 52.7555 36.7137 53.9915 34.3657 55.1185C32.1372 56.1882 28.942 56.8958 25.3229 56.8958C21.7038 56.8958 18.5087 56.1882 16.2801 55.1185C13.9322 53.9915 13.1771 52.7555 13.1771 51.9271C13.1771 51.0986 13.9322 49.8626 16.2801 48.7356C18.5087 47.6659 21.7038 46.9583 25.3229 46.9583C28.942 46.9583 32.1372 47.6659 34.3657 48.7356C36.7137 49.8626 37.4687 51.0986 37.4687 51.9271Z" fill="#3498DB" stroke="#3498DB" stroke-width="3.3125"/>
<rect x="19.25" y="44.1979" width="11.0417" height="2.20833" stroke="#3498DB" stroke-width="2.20833"/>
<path d="M12.2023 29.0104L10.5245 22.6873H11.3828L12.3447 26.8323C12.4482 27.2665 12.5373 27.6978 12.6121 28.1262C12.7731 27.4505 12.868 27.0609 12.8967 26.9574L14.1001 22.6873H15.1094L16.0151 25.8877C16.2423 26.6813 16.4062 27.4275 16.5068 28.1262C16.5874 27.7265 16.6923 27.2679 16.8217 26.7503L17.8137 22.6873H18.6548L16.9209 29.0104H16.1143L14.7816 24.1926C14.6694 23.7901 14.6033 23.5428 14.5832 23.4508C14.517 23.7412 14.4552 23.9885 14.3977 24.1926L13.0563 29.0104H12.2023ZM20.544 29.0104L18.8661 22.6873H19.7245L20.6863 26.8323C20.7898 27.2665 20.8789 27.6978 20.9537 28.1262C21.1147 27.4505 21.2096 27.0609 21.2384 26.9574L22.4417 22.6873H23.451L24.3568 25.8877C24.5839 26.6813 24.7478 27.4275 24.8485 28.1262C24.929 27.7265 25.0339 27.2679 25.1633 26.7503L26.1554 22.6873H26.9964L25.2625 29.0104H24.456L23.1232 24.1926C23.0111 23.7901 22.9449 23.5428 22.9248 23.4508C22.8587 23.7412 22.7969 23.9885 22.7393 24.1926L21.398 29.0104H20.544ZM28.8856 29.0104L27.2078 22.6873H28.0661L29.0279 26.8323C29.1314 27.2665 29.2206 27.6978 29.2953 28.1262C29.4564 27.4505 29.5512 27.0609 29.58 26.9574L30.7834 22.6873H31.7926L32.6984 25.8877C32.9256 26.6813 33.0895 27.4275 33.1901 28.1262C33.2706 27.7265 33.3756 27.2679 33.505 26.7503L34.497 22.6873H35.3381L33.6042 29.0104H32.7976L31.4648 24.1926C31.3527 23.7901 31.2866 23.5428 31.2664 23.4508C31.2003 23.7412 31.1385 23.9885 31.081 24.1926L29.7396 29.0104H28.8856ZM35.7521 29.0104V28.1262H36.6363V29.0104H35.7521Z" fill="#3498DB"/>
<path d="M32.9868 20.5286C34.451 17.8343 36.6575 14.5172 38.3247 15.2714C39.9155 15.9911 40.625 19.1053 40.625 19.1053C40.625 19.1053 43.6922 21.4057 37.1745 20.2555C35.1645 19.9008 33.8473 20.0931 32.9868 20.5286C32.0548 22.2435 31.4236 23.706 31.4236 23.706C31.4236 23.706 31.0569 21.5054 32.9868 20.5286Z" fill="#D4D8C9"/>
<path d="M38.3247 15.2714C35.5964 14.0372 31.4236 23.706 31.4236 23.706C31.4236 23.706 30.6569 19.1053 37.1745 20.2555C43.6922 21.4057 40.625 19.1053 40.625 19.1053C40.625 19.1053 39.9155 15.9911 38.3247 15.2714Z" stroke="#D4D8C9" stroke-width="1.53356"/>
<path d="M59 5.98149C59 6.82845 58.3134 7.51505 57.4664 7.51505C56.6195 7.51505 54.3993 7.59523 54.3993 6.74827C54.3993 5.9013 56.6195 4.44792 57.4664 4.44792C58.3134 4.44792 59 5.13452 59 5.98149Z" fill="#3498DB"/>
<rect x="38.5927" y="15.406" width="17.9326" height="3.06713" rx="0.766782" transform="rotate(-33.4917 38.5927 15.406)" fill="#3498DB" stroke="#3498DB" stroke-width="1.53356"/>
<line x1="10" y1="32.4479" x2="38.7083" y2="32.4479" stroke="#3498DB" stroke-width="1.10417"/>
<path d="M10 35.9167L42.4375 35.9167" stroke="#3498DB" stroke-width="1.10417"/>
</svg>
