<svg width="60" height="60" viewBox="0 0 60 60" fill="none" xmlns="http://www.w3.org/2000/svg">
<rect x="3.79167" y="9.96874" width="43.0625" height="30.9167" rx="3.3125" stroke="#3498DB" stroke-width="4.41667"/>
<path d="M37.4688 51.9271C37.4688 52.7555 36.7137 53.9915 34.3658 55.1185C32.1372 56.1882 28.942 56.8958 25.3229 56.8958C21.7038 56.8958 18.5087 56.1882 16.2801 55.1185C13.9322 53.9915 13.1771 52.7555 13.1771 51.9271C13.1771 51.0986 13.9322 49.8626 16.2801 48.7356C18.5087 47.6659 21.7038 46.9583 25.3229 46.9583C28.942 46.9583 32.1372 47.6659 34.3658 48.7356C36.7137 49.8626 37.4688 51.0986 37.4688 51.9271Z" fill="#3498DB" stroke="#3498DB" stroke-width="3.3125"/>
<rect x="19.25" y="44.1979" width="11.0417" height="2.20833" stroke="#3498DB" stroke-width="2.20833"/>
<path d="M9.43359 29.2051L11.1211 29.041C11.2227 29.6074 11.4277 30.0234 11.7363 30.2891C12.0488 30.5547 12.4688 30.6875 12.9961 30.6875C13.5547 30.6875 13.9746 30.5703 14.2559 30.3359C14.541 30.0977 14.6836 29.8203 14.6836 29.5039C14.6836 29.3008 14.623 29.1289 14.502 28.9883C14.3848 28.8438 14.1777 28.7188 13.8809 28.6133C13.6777 28.543 13.2148 28.418 12.4922 28.2383C11.5625 28.0078 10.9102 27.7246 10.5352 27.3887C10.0078 26.916 9.74414 26.3398 9.74414 25.6602C9.74414 25.2227 9.86719 24.8145 10.1133 24.4355C10.3633 24.0527 10.7207 23.7617 11.1855 23.5625C11.6543 23.3633 12.2188 23.2637 12.8789 23.2637C13.957 23.2637 14.7676 23.5 15.3105 23.9727C15.8574 24.4453 16.1445 25.0762 16.1719 25.8652L14.4375 25.9414C14.3633 25.5 14.2031 25.1836 13.957 24.9922C13.7148 24.7969 13.3496 24.6992 12.8613 24.6992C12.3574 24.6992 11.9629 24.8027 11.6777 25.0098C11.4941 25.1426 11.4023 25.3203 11.4023 25.543C11.4023 25.7461 11.4883 25.9199 11.6602 26.0645C11.8789 26.248 12.4102 26.4395 13.2539 26.6387C14.0977 26.8379 14.7207 27.0449 15.123 27.2598C15.5293 27.4707 15.8457 27.7617 16.0723 28.1328C16.3027 28.5 16.418 28.9551 16.418 29.498C16.418 29.9902 16.2812 30.4512 16.0078 30.8809C15.7344 31.3105 15.3477 31.6309 14.8477 31.8418C14.3477 32.0488 13.7246 32.1523 12.9785 32.1523C11.8926 32.1523 11.0586 31.9023 10.4766 31.4023C9.89453 30.8984 9.54688 30.166 9.43359 29.2051ZM17.877 32V23.4102H24.2461V24.8633H19.6113V26.7676H23.9238V28.2148H19.6113V30.5527H24.4102V32H17.877ZM25.5293 27.7578C25.5293 26.8828 25.6602 26.1484 25.9219 25.5547C26.1172 25.1172 26.3828 24.7246 26.7188 24.377C27.0586 24.0293 27.4297 23.7715 27.832 23.6035C28.3672 23.377 28.9844 23.2637 29.6836 23.2637C30.9492 23.2637 31.9609 23.6562 32.7188 24.4414C33.4805 25.2266 33.8613 26.3184 33.8613 27.7168C33.8613 29.1035 33.4844 30.1895 32.7305 30.9746C31.9766 31.7559 30.9688 32.1465 29.707 32.1465C28.4297 32.1465 27.4141 31.7578 26.6602 30.9805C25.9062 30.1992 25.5293 29.125 25.5293 27.7578ZM27.3164 27.6992C27.3164 28.6719 27.541 29.4102 27.9902 29.9141C28.4395 30.4141 29.0098 30.6641 29.7012 30.6641C30.3926 30.6641 30.959 30.416 31.4004 29.9199C31.8457 29.4199 32.0684 28.6719 32.0684 27.6758C32.0684 26.6914 31.8516 25.957 31.418 25.4727C30.9883 24.9883 30.416 24.7461 29.7012 24.7461C28.9863 24.7461 28.4102 24.9922 27.9727 25.4844C27.5352 25.9727 27.3164 26.7109 27.3164 27.6992Z" fill="#3498DB"/>
<path d="M41 26.5C41 31.0618 36.6655 35 31 35C25.3345 35 21 31.0618 21 26.5C21 21.9382 25.3345 18 31 18C36.6655 18 41 21.9382 41 26.5Z" fill="white" fill-opacity="0.5" stroke="#3498DB" stroke-width="2"/>
<path d="M56.0545 41.6919L39.872 32.0508L38.308 33.9119L54.4905 43.553L56.0545 41.6919Z" fill="#3498DB" stroke="#3498DB" stroke-width="2"/>
</svg>
