<svg width="60" height="60" viewBox="0 0 60 60" fill="none" xmlns="http://www.w3.org/2000/svg">
<rect x="3.79167" y="9.96874" width="43.0625" height="30.9167" rx="3.3125" stroke="#3498DB" stroke-width="4.41667"/>
<path d="M37.4688 51.9271C37.4688 52.7555 36.7137 53.9915 34.3658 55.1185C32.1372 56.1882 28.942 56.8958 25.3229 56.8958C21.7038 56.8958 18.5087 56.1882 16.2801 55.1185C13.9322 53.9915 13.1771 52.7555 13.1771 51.9271C13.1771 51.0986 13.9322 49.8626 16.2801 48.7356C18.5087 47.6659 21.7038 46.9583 25.3229 46.9583C28.942 46.9583 32.1372 47.6659 34.3658 48.7356C36.7137 49.8626 37.4688 51.0986 37.4688 51.9271Z" fill="#3498DB" stroke="#3498DB" stroke-width="3.3125"/>
<rect x="19.25" y="44.1979" width="11.0417" height="2.20833" stroke="#3498DB" stroke-width="2.20833"/>
<rect x="9" y="17" width="9" height="8" fill="#17D2FB"/>
<rect x="9" y="28" width="9" height="8" fill="#FF0B9D"/>
<rect x="21" y="28" width="9" height="8" fill="#CDF334"/>
<rect x="33" y="28" width="9" height="8" fill="#2C1DCF"/>
<rect x="21" y="17" width="9" height="8" fill="#8819DF"/>
<rect x="33" y="17" width="9" height="8" fill="#F17028"/>
<path d="M45.5 6.15C44.0544 6.15 42.6412 6.49687 41.4392 7.14674C40.2371 7.79661 39.3003 8.72029 38.7471 9.80099C38.1938 10.8817 38.0491 12.0708 38.3311 13.2181C38.6132 14.3654 39.3093 15.4192 40.3315 16.2463C41.3538 17.0734 42.6562 17.6367 44.074 17.8649C45.4919 18.0931 46.9616 17.976 48.2972 17.5284C49.6328 17.0807 50.7743 16.3227 51.5775 15.3501C52.3806 14.3775 52.8093 13.234 52.8093 12.0643C52.807 10.4963 52.0361 8.99308 50.6659 7.88434C49.2956 6.77561 47.4378 6.15189 45.5 6.15V6.15ZM45.5 14.35C44.9256 14.35 44.3641 14.2122 43.8865 13.954C43.4088 13.6957 43.0366 13.3287 42.8168 12.8993C42.5969 12.4699 42.5394 11.9974 42.6515 11.5415C42.7636 11.0857 43.0402 10.667 43.4463 10.3383C43.8525 10.0096 44.37 9.78583 44.9334 9.69515C45.4968 9.60448 46.0807 9.65102 46.6114 9.82888C47.1421 10.0067 47.5957 10.308 47.9148 10.6944C48.234 11.0809 48.4043 11.5352 48.4043 12C48.4043 12.6233 48.0983 13.221 47.5537 13.6617C47.009 14.1024 46.2703 14.35 45.5 14.35ZM45.5 6.15C44.0544 6.15 42.6412 6.49687 41.4392 7.14674C40.2371 7.79661 39.3003 8.72029 38.7471 9.80099C38.1938 10.8817 38.0491 12.0708 38.3311 13.2181C38.6132 14.3654 39.3093 15.4192 40.3315 16.2463C41.3538 17.0734 42.6562 17.6367 44.074 17.8649C45.4919 18.0931 46.9616 17.976 48.2972 17.5284C49.6328 17.0807 50.7743 16.3227 51.5775 15.3501C52.3806 14.3775 52.8093 13.234 52.8093 12.0643C52.807 10.4963 52.0361 8.99308 50.6659 7.88434C49.2956 6.77561 47.4378 6.15189 45.5 6.15V6.15ZM45.5 14.35C44.9256 14.35 44.3641 14.2122 43.8865 13.954C43.4088 13.6957 43.0366 13.3287 42.8168 12.8993C42.5969 12.4699 42.5394 11.9974 42.6515 11.5415C42.7636 11.0857 43.0402 10.667 43.4463 10.3383C43.8525 10.0096 44.37 9.78583 44.9334 9.69515C45.4968 9.60448 46.0807 9.65102 46.6114 9.82888C47.1421 10.0067 47.5957 10.308 47.9148 10.6944C48.234 11.0809 48.4043 11.5352 48.4043 12C48.4043 12.6233 48.0983 13.221 47.5537 13.6617C47.009 14.1024 46.2703 14.35 45.5 14.35ZM57.3997 15.0643L58 11.7571L55.3517 11C55.2799 10.5582 55.1677 10.1213 55.0162 9.69286L57.0643 8.15L54.8927 5.29286L52.2444 6.08571C51.8369 5.77958 51.4 5.50013 50.9379 5.25L51.2821 3.00714L47.4068 2L46.0297 3.95714C45.476 3.92869 44.9203 3.94304 44.3701 4L42.8517 2.1L39.0205 3.33571L39.5325 5.57143C39.0923 5.83979 38.679 6.13596 38.2966 6.45714L35.6483 5.79286L33.6621 8.72857L35.8249 10.1571C35.6988 10.5915 35.6162 11.0334 35.5777 11.4786L33 12.3786L33.8828 15.6429H36.69C36.9449 16.0405 37.2401 16.4204 37.5727 16.7786L36.2398 18.7857L39.4707 20.85L41.607 19.3786C41.8564 19.4725 42.1129 19.5536 42.375 19.6214C42.6379 19.6945 42.9062 19.7542 43.1783 19.8L43.8051 22L47.9276 21.9071L48.3867 19.6643C48.9119 19.538 49.4229 19.3755 49.9138 19.1786L52.1561 20.5714L55.2105 18.3286L53.798 16.3714C54.0951 15.9958 54.3548 15.6017 54.5749 15.1929L57.3997 15.0643ZM53.3655 13.8L53.1624 14.2429C52.8974 14.8348 52.5288 15.3928 52.0678 15.9L51.6794 16.2857L52.9506 18.0286L52.0678 18.6857L50.0727 17.4643L49.5607 17.7143C48.8906 18.0377 48.1647 18.2784 47.4068 18.4286L46.8418 18.5429L46.4269 20.5357H45.1999L44.6172 18.5714L44.0434 18.4857C43.6597 18.438 43.2817 18.3639 42.9135 18.2643C42.5436 18.1651 42.1836 18.0434 41.8365 17.9L41.3333 17.7143L39.4354 19.0071L38.4379 18.3857L39.5766 16.5857L39.2059 16.2214C38.7072 15.7381 38.2969 15.1992 37.9876 14.6214L37.7493 14.1929H35.2511L35.0039 13.2214L37.2991 12.4357V12C37.3 11.3683 37.416 10.7401 37.6434 10.1357L37.8111 9.68571L35.9043 8.37143L36.4869 7.5L38.8704 8.09286L39.25 7.71429C39.7624 7.23207 40.3568 6.8112 41.0155 6.46429L41.5011 6.20714L41.042 4.21429L42.1896 3.85L43.5138 5.57143L44.0876 5.48571C44.8448 5.37556 45.6173 5.35152 46.3828 5.41429L46.9654 5.47143L48.2278 3.71429L49.393 4.02857L49.0929 6.02857L49.596 6.26429C50.2725 6.58053 50.8882 6.97519 51.4234 7.43571L51.8294 7.77857L54.16 7.06429L54.8044 7.90714L52.977 9.28571L53.1713 9.73571C53.4436 10.3272 53.6043 10.9484 53.648 11.5786V12.05L56.0049 12.7214L55.8284 13.7071L53.3655 13.8ZM45.5 6.15C44.0544 6.15 42.6412 6.49687 41.4392 7.14674C40.2371 7.79661 39.3003 8.72029 38.7471 9.80099C38.1938 10.8817 38.0491 12.0708 38.3311 13.2181C38.6132 14.3654 39.3093 15.4192 40.3315 16.2463C41.3538 17.0734 42.6562 17.6367 44.074 17.8649C45.4919 18.0931 46.9616 17.976 48.2972 17.5284C49.6328 17.0807 50.7743 16.3227 51.5775 15.3501C52.3806 14.3775 52.8093 13.234 52.8093 12.0643C52.807 10.4963 52.0361 8.99308 50.6659 7.88434C49.2956 6.77561 47.4378 6.15189 45.5 6.15V6.15ZM45.5 14.35C44.9256 14.35 44.3641 14.2122 43.8865 13.954C43.4088 13.6957 43.0366 13.3287 42.8168 12.8993C42.5969 12.4699 42.5394 11.9974 42.6515 11.5415C42.7636 11.0857 43.0402 10.667 43.4463 10.3383C43.8525 10.0096 44.37 9.78583 44.9334 9.69515C45.4968 9.60448 46.0807 9.65102 46.6114 9.82888C47.1421 10.0067 47.5957 10.308 47.9148 10.6944C48.234 11.0809 48.4043 11.5352 48.4043 12C48.4043 12.6233 48.0983 13.221 47.5537 13.6617C47.009 14.1024 46.2703 14.35 45.5 14.35Z" fill="#3498DB"/>
</svg>
